<svg width="32" height="32" viewBox="0 0 32 32" fill="none" xmlns="http://www.w3.org/2000/svg">
<g clip-path="url(#clip0_101_14)">
<rect x="-0.669983" y="10.9268" width="24.1928" height="23.5696" transform="rotate(-27 -0.669983 10.9268)" fill="url(#paint0_linear_101_14)"/>
<path d="M10.1094 16V5.97852H11.3398V16H10.1094ZM17.9912 15.1045C17.5355 15.4919 17.0957 15.7653 16.6719 15.9248C16.2526 16.0843 15.8014 16.1641 15.3184 16.1641C14.5208 16.1641 13.9079 15.9704 13.4795 15.583C13.0511 15.1911 12.8369 14.6921 12.8369 14.0859C12.8369 13.7305 12.9167 13.4069 13.0762 13.1152C13.2402 12.819 13.4521 12.582 13.7119 12.4043C13.9762 12.2266 14.2725 12.0921 14.6006 12.001C14.8421 11.9372 15.2067 11.8757 15.6943 11.8164C16.6878 11.6979 17.4193 11.5566 17.8887 11.3926C17.8932 11.224 17.8955 11.1169 17.8955 11.0713C17.8955 10.57 17.7793 10.2168 17.5469 10.0117C17.2324 9.73372 16.7653 9.59473 16.1455 9.59473C15.5667 9.59473 15.1383 9.69727 14.8604 9.90234C14.5869 10.1029 14.3841 10.4606 14.252 10.9756L13.0488 10.8115C13.1582 10.2965 13.3382 9.88184 13.5889 9.56738C13.8395 9.24837 14.2018 9.00456 14.6758 8.83594C15.1497 8.66276 15.6989 8.57617 16.3232 8.57617C16.943 8.57617 17.4466 8.64909 17.834 8.79492C18.2214 8.94076 18.5062 9.12533 18.6885 9.34863C18.8708 9.56738 18.9984 9.84538 19.0713 10.1826C19.1123 10.3923 19.1328 10.7705 19.1328 11.3174V12.958C19.1328 14.1019 19.1579 14.8265 19.208 15.1318C19.2627 15.4326 19.3675 15.722 19.5225 16H18.2373C18.1097 15.7448 18.0277 15.4463 17.9912 15.1045ZM17.8887 12.3564C17.4421 12.5387 16.7721 12.6937 15.8789 12.8213C15.373 12.8942 15.0153 12.9762 14.8057 13.0674C14.596 13.1585 14.4342 13.293 14.3203 13.4707C14.2064 13.6439 14.1494 13.8376 14.1494 14.0518C14.1494 14.3799 14.2725 14.6533 14.5186 14.8721C14.7692 15.0908 15.1338 15.2002 15.6123 15.2002C16.0863 15.2002 16.5078 15.0977 16.877 14.8926C17.2461 14.6829 17.5173 14.3981 17.6904 14.0381C17.8226 13.7601 17.8887 13.3499 17.8887 12.8076V12.3564ZM14.2656 7.31836V5.91699H15.5508V7.31836H14.2656ZM16.8154 7.31836V5.91699H18.1006V7.31836H16.8154ZM21.0332 16V8.74023H22.1406V9.84082C22.4232 9.32585 22.6829 8.98633 22.9199 8.82227C23.1615 8.6582 23.4258 8.57617 23.7129 8.57617C24.1276 8.57617 24.5492 8.70833 24.9775 8.97266L24.5537 10.1143C24.2529 9.93652 23.9521 9.84766 23.6514 9.84766C23.3825 9.84766 23.141 9.92969 22.9268 10.0938C22.7126 10.2533 22.5599 10.4766 22.4688 10.7637C22.332 11.2012 22.2637 11.6797 22.2637 12.1992V16H21.0332ZM6.63672 24V13.9785H7.86719V19.6934L10.7793 16.7402H12.3721L9.59668 19.4336L12.6523 24H11.1348L8.73535 20.2881L7.86719 21.1221V24H6.63672ZM18.3672 23.1045C17.9115 23.4919 17.4717 23.7653 17.0479 23.9248C16.6286 24.0843 16.1774 24.1641 15.6943 24.1641C14.8968 24.1641 14.2839 23.9704 13.8555 23.583C13.4271 23.1911 13.2129 22.6921 13.2129 22.0859C13.2129 21.7305 13.2926 21.4069 13.4521 21.1152C13.6162 20.819 13.8281 20.582 14.0879 20.4043C14.3522 20.2266 14.6484 20.0921 14.9766 20.001C15.2181 19.9372 15.5827 19.8757 16.0703 19.8164C17.0638 19.6979 17.7952 19.5566 18.2646 19.3926C18.2692 19.224 18.2715 19.1169 18.2715 19.0713C18.2715 18.57 18.1553 18.2168 17.9229 18.0117C17.6084 17.7337 17.1413 17.5947 16.5215 17.5947C15.9427 17.5947 15.5143 17.6973 15.2363 17.9023C14.9629 18.1029 14.7601 18.4606 14.6279 18.9756L13.4248 18.8115C13.5342 18.2965 13.7142 17.8818 13.9648 17.5674C14.2155 17.2484 14.5778 17.0046 15.0518 16.8359C15.5257 16.6628 16.0749 16.5762 16.6992 16.5762C17.319 16.5762 17.8226 16.6491 18.21 16.7949C18.5973 16.9408 18.8822 17.1253 19.0645 17.3486C19.2467 17.5674 19.3743 17.8454 19.4473 18.1826C19.4883 18.3923 19.5088 18.7705 19.5088 19.3174V20.958C19.5088 22.1019 19.5339 22.8265 19.584 23.1318C19.6387 23.4326 19.7435 23.722 19.8984 24H18.6133C18.4857 23.7448 18.4036 23.4463 18.3672 23.1045ZM18.2646 20.3564C17.818 20.5387 17.1481 20.6937 16.2549 20.8213C15.749 20.8942 15.3913 20.9762 15.1816 21.0674C14.972 21.1585 14.8102 21.293 14.6963 21.4707C14.5824 21.6439 14.5254 21.8376 14.5254 22.0518C14.5254 22.3799 14.6484 22.6533 14.8945 22.8721C15.1452 23.0908 15.5098 23.2002 15.9883 23.2002C16.4622 23.2002 16.8838 23.0977 17.2529 22.8926C17.6221 22.6829 17.8932 22.3981 18.0664 22.0381C18.1986 21.7601 18.2646 21.3499 18.2646 20.8076V20.3564ZM21.4229 24V16.7402H22.5303V17.7725C23.0635 16.9749 23.8337 16.5762 24.8408 16.5762C25.2783 16.5762 25.6794 16.6559 26.0439 16.8154C26.4131 16.9704 26.6888 17.1755 26.8711 17.4307C27.0534 17.6859 27.181 17.9889 27.2539 18.3398C27.2995 18.5677 27.3223 18.9665 27.3223 19.5361V24H26.0918V19.584C26.0918 19.0827 26.0439 18.709 25.9482 18.4629C25.8525 18.2122 25.6816 18.014 25.4355 17.8682C25.194 17.7178 24.9092 17.6426 24.5811 17.6426C24.057 17.6426 23.6035 17.8089 23.2207 18.1416C22.8424 18.4743 22.6533 19.1055 22.6533 20.0352V24H21.4229Z" fill="white"/>
</g>
<defs>
<linearGradient id="paint0_linear_101_14" x1="0.0947128" y1="11.6468" x2="23.7207" y2="33.7576" gradientUnits="userSpaceOnUse">
<stop stop-color="#7E27C8"/>
<stop offset="1" stop-color="#FC0181"/>
</linearGradient>
<clipPath id="clip0_101_14">
<rect width="32" height="32" fill="white"/>
</clipPath>
</defs>
</svg>
